HIERARCHY
ROOT Hips
{
	OFFSET 0.000000 0.000000 0.000000
	CHANNELS 6 Xposition Yposition Zposition Zrotation Yrotation Xrotation 
	JOINT LHipJoint
	{
		OFFSET 0.000000 0.000000 0.000000
		CHANNELS 3 Zrotation Yrotation Xrotation
		JOINT LeftUpLeg
		{
			OFFSET 1.363060 -1.794630 0.839290
			CHANNELS 3 Zrotation Yrotation Xrotation
			JOINT LeftLeg
			{
				OFFSET 2.448110 -6.726130 0.000000
				CHANNELS 3 Zrotation Yrotation Xrotation
				JOINT LeftFoot
				{
					OFFSET 2.562200 -7.039590 0.000000
					CHANNELS 3 Zrotation Yrotation Xrotation
					JOINT LeftToeBase
					{
						OFFSET 0.157640 -0.433110 2.322550
						CHANNELS 3 Zrotation Yrotation Xrotation
						End Site
						{
							OFFSET 0.000000 0.000000 0.000000
						}
					}
				}
			}
		}
	}
	JOINT RHipJoint
	{
		OFFSET 0.000000 0.000000 0.000000
		CHANNELS 3 Zrotation Yrotation Xrotation
		JOINT RightUpLeg
		{
			OFFSET -1.305520 -1.794630 0.839290
			CHANNELS 3 Zrotation Yrotation Xrotation
			JOINT RightLeg
			{
				OFFSET -2.542530 -6.985550 0.000000
				CHANNELS 3 Zrotation Yrotation Xrotation
				JOINT RightFoot
				{
					OFFSET -2.568260 -7.056230 0.000000
					CHANNELS 3 Zrotation Yrotation Xrotation
					JOINT RightToeBase
					{
						OFFSET -0.164730 -0.452590 2.363150
						CHANNELS 3 Zrotation Yrotation Xrotation
						End Site
						{
							OFFSET 0.000000 0.000000 0.000000
						}
					}
				}
			}
		}
	}
	JOINT LowerBack
	{
		OFFSET 0.000000 0.000000 0.000000
		CHANNELS 3 Zrotation Yrotation Xrotation
		JOINT Spine
		{
			OFFSET 0.028270 2.035590 -0.193380
			CHANNELS 3 Zrotation Yrotation Xrotation
			JOINT Spine1
			{
				OFFSET 0.056720 2.048850 -0.042750
				CHANNELS 3 Zrotation Yrotation Xrotation
				JOINT Neck
				{
					OFFSET 0.000000 0.000000 0.000000
					CHANNELS 3 Zrotation Yrotation Xrotation
					JOINT Neck1
					{
						OFFSET -0.054170 1.746240 0.172020
						CHANNELS 3 Zrotation Yrotation Xrotation
						JOINT Head
						{
							OFFSET 0.104070 1.761360 -0.123970
							CHANNELS 3 Zrotation Yrotation Xrotation
							End Site
							{
								OFFSET 0.000000 0.000000 0.000000
							}
						}
					}
				}
				JOINT LeftShoulder
				{
					OFFSET 0.000000 0.000000 0.000000
					CHANNELS 3 Zrotation Yrotation Xrotation
					JOINT LeftArm
					{
						OFFSET 3.362410 1.200890 -0.311210
						CHANNELS 3 Zrotation Yrotation Xrotation
						JOINT LeftForeArm
						{
							OFFSET 4.983000 -0.000000 -0.000000
							CHANNELS 3 Zrotation Yrotation Xrotation
							JOINT LeftHand
							{
								OFFSET 3.483560 -0.000000 -0.000000
								CHANNELS 3 Zrotation Yrotation Xrotation
								JOINT LeftFingerBase
								{
									OFFSET 0.000000 0.000000 0.000000
									CHANNELS 3 Zrotation Yrotation Xrotation
									JOINT LeftHandIndex1
									{
										OFFSET 0.715260 -0.000000 -0.000000
										CHANNELS 3 Zrotation Yrotation Xrotation
										End Site
										{
											OFFSET 0.000000 0.000000 0.000000
										}
									}
								}
								JOINT LThumb
								{
									OFFSET 0.000000 0.000000 0.000000
									CHANNELS 3 Zrotation Yrotation Xrotation
									End Site
									{
										OFFSET 0.000000 0.000000 0.000000
									}
								}
							}
						}
					}
				}
				JOINT RightShoulder
				{
					OFFSET 0.000000 0.000000 0.000000
					CHANNELS 3 Zrotation Yrotation Xrotation
					JOINT RightArm
					{
						OFFSET -3.136600 1.374050 -0.404650
						CHANNELS 3 Zrotation Yrotation Xrotation
						JOINT RightForeArm
						{
							OFFSET -5.241900 -0.000000 -0.000000
							CHANNELS 3 Zrotation Yrotation Xrotation
							JOINT RightHand
							{
								OFFSET -3.444170 -0.000000 -0.000000
								CHANNELS 3 Zrotation Yrotation Xrotation
								JOINT RightFingerBase
								{
									OFFSET 0.000000 0.000000 0.000000
									CHANNELS 3 Zrotation Yrotation Xrotation
									JOINT RightHandIndex1
									{
										OFFSET -0.622530 -0.000000 -0.000000
										CHANNELS 3 Zrotation Yrotation Xrotation
										End Site
										{
											OFFSET 0.000000 0.000000 0.000000
										}
									}
								}
								JOINT RThumb
								{
									OFFSET 0.000000 0.000000 0.000000
									CHANNELS 3 Zrotation Yrotation Xrotation
									End Site
									{
										OFFSET 0.000000 0.000000 0.000000
									}
								}
							}
						}
					}
				}
			}
		}
	}
}
MOTION
Frames: 11
Frame Time: 0.033333
-2.242206 16.314235 23.228170 2.435004 7.935432 9.216970 -2.624843 4.803464 -8.043298 -19.703343 -2.196929 -3.538012 -10.960542 -12.436112 -30.680247 0.789735 12.743158 29.648515 0.000000 0.000000 0.000000 13.337301 3.881676 -4.519019 0.112321 -4.359683 0.218326 4.695645 -28.854501 44.666865 15.493860 -21.852095 -1.058113 0.000000 0.000000 0.000000 -7.734769 -1.410538 19.794903 3.271701 -1.500528 -4.666781 2.815765 -0.735345 -7.058722 -3.288172 0.809488 0.350110 5.327242 -0.281325 7.074008 0.000000 0.000000 0.000000 9.998602 13.113620 7.074996 -72.062006 -6.691769 25.054075 -21.402306 -78.184626 0.635966 -0.101863 -14.377351 0.314158 -0.092379 -14.386374 0.000000 0.000000 0.000000 0.000000 0.000000 0.000000 0.000000 -4.204694 -18.857767 3.598616 67.196540 5.084653 24.500657 20.065548 76.863123 0.387211 0.029889 11.177755 0.191972 0.022817 11.182234 0.000000 0.000000 0.000000 0.000000 0.000000 0.000000 0.000000 
-2.270425 16.328741 23.408788 2.731409 7.913084 9.373742 -2.115910 4.543832 -8.517244 -20.492700 -1.805508 -2.699520 -10.495088 -12.243278 -30.181985 0.608618 11.721991 27.479409 0.000000 0.000000 0.000000 13.337281 4.206057 -4.520892 -0.046219 -4.630135 0.598598 4.497481 -28.867035 44.419176 16.013957 -23.434584 1.057273 0.000000 0.000000 0.000000 -7.985642 -1.316154 20.346154 3.068335 -1.583909 -4.423387 2.941082 -0.646123 -7.779382 -3.775337 0.919432 1.325165 5.363276 -0.319354 7.475312 0.000000 0.000000 0.000000 10.061789 13.849932 6.845523 -72.026869 -6.877386 25.868318 -21.953387 -78.021525 0.670001 -0.342904 -14.300871 0.331477 -0.339309 -14.310833 0.000000 0.000000 0.000000 0.000000 0.000000 0.000000 0.000000 -3.672885 -19.884302 3.025039 66.546113 5.021508 25.314300 20.340211 76.865276 0.395813 0.128305 11.091857 0.196358 0.122944 11.096540 0.000000 0.000000 0.000000 0.000000 0.000000 0.000000 0.000000 
-2.290776 16.350145 23.593437 3.009681 7.807528 9.564322 -1.654978 4.379721 -8.971663 -21.258938 -1.461926 -1.997654 -10.052033 -11.971315 -29.499166 0.441496 10.666865 25.180945 0.000000 0.000000 0.000000 13.353672 4.308422 -4.354381 -0.189158 -4.732555 0.717743 4.222492 -28.774403 44.207472 16.451235 -25.004080 3.208711 0.000000 0.000000 0.000000 -8.220183 -1.188077 20.747594 2.914845 -1.653183 -4.212301 3.026771 -0.532359 -8.417260 -4.105386 1.018494 2.214867 5.378457 -0.347811 7.797766 0.000000 0.000000 0.000000 10.031709 14.514565 6.660262 -71.988396 -7.060827 26.618248 -22.413016 -77.843156 0.700857 -0.543458 -14.236736 0.347165 -0.545017 -14.247443 0.000000 0.000000 0.000000 0.000000 0.000000 0.000000 0.000000 -3.242162 -20.768542 2.532097 65.975184 4.943543 26.022849 20.546267 76.932010 0.404860 0.211306 11.071987 0.200930 0.207282 11.076852 0.000000 0.000000 0.000000 0.000000 0.000000 0.000000 0.000000 
-2.302101 16.377926 23.781446 3.261972 7.633730 9.787458 -1.239637 4.312425 -9.406746 -22.000487 -1.172794 -1.433098 -9.648274 -11.622159 -28.624518 0.289753 9.585583 22.767774 0.000000 0.000000 0.000000 13.389580 4.191502 -4.026884 -0.316844 -4.676072 0.581956 3.874368 -28.578904 44.031912 16.796975 -26.542532 5.377944 0.000000 0.000000 0.000000 -8.452921 -1.020178 21.003748 2.822176 -1.708422 -4.017638 3.097765 -0.399932 -8.988805 -4.249572 1.085789 3.034244 5.399962 -0.370398 8.064429 0.000000 0.000000 0.000000 9.907451 15.122934 6.513512 -71.962908 -7.244330 27.320232 -22.796024 -77.644317 0.729147 -0.708925 -14.185048 0.361534 -0.715022 -14.196362 0.000000 0.000000 0.000000 0.000000 0.000000 0.000000 0.000000 -2.914151 -21.522980 2.112711 65.462838 4.848283 26.630814 20.701970 77.063789 0.414403 0.283232 11.117568 0.205716 0.280197 11.122608 0.000000 0.000000 0.000000 0.000000 0.000000 0.000000 0.000000 
-2.304222 16.411731 23.972426 3.477355 7.405887 10.047902 -0.866432 4.345080 -9.824108 -22.715287 -0.947069 -1.011647 -9.287159 -11.197833 -27.550997 0.153241 8.481588 20.255325 0.000000 0.000000 0.000000 13.448175 3.853276 -3.545818 -0.428066 -4.465355 0.190206 3.465087 -28.282318 43.889070 17.047672 -28.036498 7.549860 0.000000 0.000000 0.000000 -8.702724 -0.804224 21.126841 2.810239 -1.745274 -3.836525 3.185063 -0.257352 -9.521409 -4.158944 1.074464 3.769978 5.452099 -0.391682 8.282975 0.000000 0.000000 0.000000 9.684005 15.697954 6.403238 -71.969923 -7.423119 27.998006 -23.115915 -77.420669 0.755952 -0.844698 -14.146167 0.375138 -0.854902 -14.157995 0.000000 0.000000 0.000000 0.000000 0.000000 0.000000 0.000000 -2.699597 -22.156074 1.767501 64.984076 4.730538 27.140795 20.821640 77.266861 0.424631 0.347372 11.230880 0.210809 0.344999 11.236102 0.000000 0.000000 0.000000 0.000000 0.000000 0.000000 0.000000 
-2.305755 16.444641 24.156603 3.644586 7.235663 10.283733 -0.492228 4.361476 -10.252112 -23.377990 -0.730361 -0.606545 -8.953356 -10.758155 -26.440306 0.047240 7.428335 17.824737 0.000000 0.000000 0.000000 13.555354 3.567612 -3.097546 -0.553581 -4.333468 -0.139018 3.079532 -28.010144 43.683771 17.246842 -29.486716 9.625683 0.000000 0.000000 0.000000 -9.056210 -0.592748 21.260036 2.923108 -1.767090 -3.701225 3.398284 -0.134926 -9.904013 -3.800084 0.956343 4.260578 5.563475 -0.414075 8.444570 0.000000 0.000000 0.000000 9.543249 16.148142 6.318668 -72.086554 -7.654740 28.581682 -23.332495 -77.328544 0.775681 -0.925060 -14.180146 0.385102 -0.937891 -14.192322 0.000000 0.000000 0.000000 0.000000 0.000000 0.000000 0.000000 -2.711762 -22.619053 1.474288 64.656345 4.650076 27.512719 20.876830 77.544324 0.434063 0.395561 11.396135 0.215466 0.393450 11.401528 0.000000 0.000000 0.000000 0.000000 0.000000 0.000000 0.000000 
-2.306231 16.476117 24.333760 3.762607 7.123882 10.499716 -0.114776 4.357763 -10.692534 -23.984992 -0.519796 -0.214462 -8.655415 -10.308838 -25.307674 -0.033452 6.431602 15.489125 0.000000 0.000000 0.000000 13.711234 3.337290 -2.686319 -0.689400 -4.276241 -0.404885 2.716742 -27.766765 43.426094 17.391797 -30.880108 11.596392 0.000000 0.000000 0.000000 -9.517237 -0.387904 21.411568 3.164184 -1.768767 -3.611556 3.741123 -0.036945 -10.144850 -3.170516 0.701984 4.480728 5.736972 -0.440995 8.550912 0.000000 0.000000 0.000000 9.494066 16.477987 6.253695 -72.320265 -7.936243 29.078843 -23.449182 -77.379047 0.788911 -0.953124 -14.287963 0.391721 -0.967202 -14.300351 0.000000 0.000000 0.000000 0.000000 0.000000 0.000000 0.000000 -2.955878 -22.916265 1.232944 64.486853 4.605054 27.743697 20.873449 77.901967 0.442861 0.428633 11.615455 0.219765 0.426365 11.621017 0.000000 0.000000 0.000000 0.000000 0.000000 0.000000 0.000000 
-2.306084 16.505826 24.503380 3.842081 7.058599 10.695972 0.258956 4.334390 -11.139438 -24.536504 -0.312370 0.165286 -8.389474 -9.854881 -24.171200 -0.093169 5.496611 13.263973 0.000000 0.000000 0.000000 13.906784 3.162405 -2.311556 -0.835472 -4.284808 -0.607375 2.378576 -27.553430 43.126678 17.483633 -32.205695 13.452961 0.000000 0.000000 0.000000 -10.058138 -0.200143 21.576193 3.503815 -1.752028 -3.560997 4.174891 0.033099 -10.241409 -2.341608 0.330406 4.452927 5.953738 -0.472672 8.612280 0.000000 0.000000 0.000000 9.546508 16.686181 6.196552 -72.645428 -8.265790 29.483367 -23.467766 -77.574615 0.795398 -0.929850 -14.466037 0.394869 -0.943748 -14.478511 0.000000 0.000000 0.000000 0.000000 0.000000 0.000000 0.000000 -3.408488 -23.058493 1.038073 64.495818 4.594934 27.841215 20.818575 78.336168 0.451315 0.447812 11.887431 0.223846 0.444971 11.893166 0.000000 0.000000 0.000000 0.000000 0.000000 0.000000 0.000000 
-2.305848 16.533328 24.665343 3.907975 7.014721 10.860220 0.615134 4.295054 -11.578469 -25.038951 -0.100335 0.540026 -8.150935 -9.400205 -23.050354 -0.135051 4.626960 11.157021 0.000000 0.000000 0.000000 14.125244 3.050577 -1.967832 -1.001868 -4.352830 -0.733771 2.065190 -27.370666 42.794619 17.526967 -33.457655 15.191272 0.000000 0.000000 0.000000 -10.620291 -0.053913 21.727669 3.874501 -1.725343 -3.535474 4.614580 0.072741 -10.147094 -1.463193 -0.053106 4.221309 6.171173 -0.503160 8.645234 0.000000 0.000000 0.000000 9.739669 16.739894 6.125639 -73.007929 -8.643340 29.743515 -23.370703 -77.929960 0.791934 -0.843532 -14.716708 0.392895 -0.855191 -14.729092 0.000000 0.000000 0.000000 0.000000 0.000000 0.000000 0.000000 -4.046149 -23.034691 0.883712 64.761287 4.626776 27.809401 20.713699 78.839520 0.460052 0.453119 12.214743 0.228017 0.449284 12.220668 0.000000 0.000000 0.000000 0.000000 0.000000 0.000000 0.000000 
-2.303468 16.560417 24.822657 3.968548 6.944938 11.017795 0.938481 4.281928 -11.997206 -25.505800 0.095705 0.865267 -7.935019 -8.927943 -21.903079 -0.165651 3.804318 9.121702 0.000000 0.000000 0.000000 14.351672 2.928613 -1.613297 -1.183613 -4.418813 -0.874098 1.740725 -27.181720 42.465226 17.484192 -34.606474 16.868799 0.000000 0.000000 0.000000 -11.169120 0.076693 21.844291 4.248504 -1.699465 -3.521512 5.058150 0.100390 -10.057838 -0.624717 -0.452918 3.993704 6.381936 -0.534716 8.663939 0.000000 0.000000 0.000000 9.889594 16.778804 6.082319 -73.350783 -8.981174 29.962055 -23.269231 -78.262454 0.787962 -0.759461 -14.946012 0.390685 -0.768936 -14.958274 0.000000 0.000000 0.000000 0.000000 0.000000 0.000000 0.000000 -4.595186 -23.004474 0.757454 64.927699 4.681487 27.757806 20.618135 79.267432 0.466473 0.453304 12.483436 0.231047 0.448483 12.489513 0.000000 0.000000 0.000000 0.000000 0.000000 0.000000 0.000000 
-2.299313 16.587005 24.975543 4.042656 6.827456 11.159598 1.216858 4.302132 -12.383174 -25.943645 0.278511 1.142404 -7.736124 -8.438863 -20.736662 -0.186225 3.028674 7.160019 0.000000 0.000000 0.000000 14.572390 2.799605 -1.242972 -1.390611 -4.477502 -1.021708 1.403602 -26.985417 42.142387 17.353607 -35.644375 18.494930 0.000000 0.000000 0.000000 -11.658217 0.177040 21.906520 4.568008 -1.680067 -3.510861 5.445458 0.115471 -9.954331 0.056792 -0.785198 3.798285 6.555576 -0.561621 8.676037 0.000000 0.000000 0.000000 10.020705 16.784014 6.057032 -73.635614 -9.265019 30.103813 -23.159093 -78.569983 0.781768 -0.674363 -15.151701 0.387361 -0.681434 -15.163792 0.000000 0.000000 0.000000 0.000000 0.000000 0.000000 0.000000 -5.025140 -22.964064 0.659470 65.034080 4.759025 27.699405 20.534497 79.597409 0.470824 0.449502 12.684792 0.233072 0.443815 12.690979 0.000000 0.000000 0.000000 0.000000 0.000000 0.000000 0.000000 
